{"title":"Milton Jones Lion Whisperer DVDRip XviD-HAGGiS","uid":6830696,"size":733940522,"categoryP":"video","categoryS":"movies","magnet":"?xt=urn:btih:0e7a76e1919adc87acbbb14b47c349187cfb3bfa&amp;dn=Milton+Jones+Lion+Whisperer+DVDRip+XviD-HAGGiS&amp;tr=udp%3A%2F%2Ftracker.openbittorrent.com%3A80&amp;tr=udp%3A%2F%2Fopen.demonii.com%3A1337&amp;tr=udp%3A%2F%2Ftracker.coppersurfer.tk%3A6969&amp;tr=udp%3A%2F%2Fexodus.desync.com%3A6969","seeders":5,"leechers":1,"uploader":null,"files":-1,"time":1321870070,"description":"Milton Jones, you know the weird bloke with the shirts from Mock the Week.\nThis surrealist wordsmith and king of the one-liners is the voice of eight\nseries on BBC Radio 4, including The Very World Of Milton Jones and Another\nCase Of Milton Jones, and has turned up on The Michael McIntyre Roadshow on\nBBC1of the surreal one-liners The Times, Sultan of the surreal The\nGuardian\n\n\nGeneral\nFormat : AVI\nFormat/Info : Audio Video Interleave\nFile size : 700 MiB\nDuration : 1h 8mn\nOverall bit rate : 1 431 Kbps\nWriting application : VirtualDubMod 1.5.10.2 (build 2540/release)\nWriting library : VirtualDubMod build 2540/release\n\nVideo\nID : 0\nFormat : MPEG-4 Visual\nFormat profile : Advanced Simple@L5\nFormat settings, BVOP : 2\nFormat settings, QPel : No\nFormat settings, GMC : No warppoints\nFormat settings, Matrix : Default (H.263)\nMuxing mode : Packed bitstream\nCodec ID : XVID\nCodec ID/Hint : XviD\nDuration : 1h 8mn\nBit rate : 1 297 Kbps\nWidth : 624 pixels\nHeight : 352 pixels\nDisplay aspect ratio : 16:9\nFrame rate : 25.000 fps\nColor space : YUV\nChroma subsampling : 4:2:0\nBit depth : 8 bits\nScan type : Progressive\nCompression mode : Lossy\nBits/(Pixel*Frame) : 0.236\nStream size : 635 MiB (91%)\nWriting library : XviD 57\n\nAudio\nID : 1\nFormat : MPEG Audio\nFormat version : Version 1\nFormat profile : Layer 3\nMode : Joint stereo\nMode extension : MS Stereo\nCodec ID : 55\nCodec ID/Hint : MP3\nDuration : 1h 8mn\nBit rate mode : Variable\nBit rate : 121 Kbps\nNominal bit rate : 128 Kbps\nChannel(s) : 2 channels\nSampling rate : 48.0 KHz\nCompression mode : Lossy\nStream size : 59.1 MiB (8%)\nAlignment : Aligned on interleaves\nInterleave, duration : 24 ms (0.60 video frame)\nInterleave, preload duration : 505 ms\nWriting library : LAME3.98r\nEncoding settings : -m j -V 4 -q 2 -lowpass 17 --abr 128\n &lt;a href=&quot;\nhttp://bayimg.com/lAlDeaAdA&quot; rel=&quot;nofollow&quot; target=&quot;_NEW&quot;&gt;\nhttp://bayimg.com/lAlDeaAdA&lt;/a&gt; &lt;a href=&quot;\nhttp://bayimg.com/laLDFaAda&quot; rel=&quot;nofollow&quot; target=&quot;_NEW&quot;&gt;\nhttp://bayimg.com/laLDFaAda&lt;/a&gt; &lt;a href=&quot;\nhttp://bayimg.com/LALDGaaDa&quot; rel=&quot;nofollow&quot; target=&quot;_NEW&quot;&gt;\nhttp://bayimg.com/LALDGaaDa&lt;/a&gt;","torrent":{"xt":"urn:btih:0e7a76e1919adc87acbbb14b47c349187cfb3bfa","amp;dn":"Milton+Jones+Lion+Whisperer+DVDRip+XviD-HAGGiS","amp;tr":["udp%3A%2F%2Ftracker.openbittorrent.com%3A80","udp%3A%2F%2Fopen.demonii.com%3A1337","udp%3A%2F%2Ftracker.coppersurfer.tk%3A6969","udp%3A%2F%2Fexodus.desync.com%3A6969"],"infoHash":"0e7a76e1919adc87acbbb14b47c349187cfb3bfa","infoHashBuffer":{"type":"Buffer","data":[14,122,118,225,145,154,220,135,172,187,177,75,71,195,73,24,124,251,59,250]},"announce":[],"urlList":[]}}